<svg width="229" height="21" viewBox="0 0 229 21" fill="none" xmlns="http://www.w3.org/2000/svg">
<path d="M0.598011 16V1.45455H9.71733V3.34375H2.79261V7.77557H9.24148V9.65767H2.79261V14.1108H9.80256V16H0.598011ZM12.4783 16V5.09091H14.5167V6.86648H14.6516C14.8789 6.26515 15.2506 5.7964 15.7667 5.46023C16.2828 5.11932 16.9007 4.94886 17.6204 4.94886C18.3496 4.94886 18.9603 5.11932 19.4528 5.46023C19.9499 5.80114 20.3169 6.26989 20.5536 6.86648H20.6673C20.9277 6.28409 21.342 5.82008 21.9102 5.47443C22.4783 5.12405 23.1554 4.94886 23.9414 4.94886C24.931 4.94886 25.7383 5.259 26.3633 5.87926C26.993 6.49953 27.3079 7.43466 27.3079 8.68466V16H25.1843V8.88352C25.1843 8.14489 24.9831 7.60985 24.5806 7.27841C24.1781 6.94697 23.6976 6.78125 23.1388 6.78125C22.4476 6.78125 21.9102 6.99432 21.5266 7.42045C21.1431 7.84186 20.9513 8.384 20.9513 9.04688V16H18.8349V8.74858C18.8349 8.15672 18.6502 7.68087 18.2809 7.32102C17.9116 6.96117 17.431 6.78125 16.8391 6.78125C16.4367 6.78125 16.065 6.88778 15.7241 7.10085C15.3879 7.30919 15.1156 7.60038 14.9073 7.97443C14.7037 8.34848 14.6019 8.78172 14.6019 9.27415V16H12.4783ZM30.1541 20.0909V5.09091H32.228V6.85938H32.4055C32.5286 6.6321 32.7062 6.36932 32.9382 6.07102C33.1702 5.77273 33.4922 5.51231 33.9041 5.28977C34.3161 5.0625 34.8606 4.94886 35.5376 4.94886C36.4183 4.94886 37.2043 5.1714 37.8956 5.61648C38.5869 6.06155 39.129 6.70312 39.522 7.54119C39.9197 8.37926 40.1186 9.38778 40.1186 10.5668C40.1186 11.7457 39.9221 12.7566 39.5291 13.5994C39.1361 14.4375 38.5964 15.0838 37.9098 15.5384C37.2232 15.9882 36.4396 16.2131 35.5589 16.2131C34.8961 16.2131 34.3539 16.1018 33.9325 15.8793C33.5159 15.6567 33.1892 15.3963 32.9524 15.098C32.7157 14.7997 32.5334 14.5346 32.4055 14.3026H32.2777V20.0909H30.1541ZM32.2351 10.5455C32.2351 11.3125 32.3464 11.9848 32.5689 12.5625C32.7914 13.1402 33.1134 13.5923 33.5348 13.919C33.9562 14.241 34.4723 14.402 35.0831 14.402C35.7176 14.402 36.2479 14.2339 36.674 13.8977C37.1001 13.5568 37.4221 13.0952 37.6399 12.5128C37.8625 11.9304 37.9737 11.2746 37.9737 10.5455C37.9737 9.82576 37.8648 9.17945 37.647 8.60653C37.4339 8.03362 37.112 7.58144 36.6811 7.25C36.255 6.91856 35.7223 6.75284 35.0831 6.75284C34.4676 6.75284 33.9467 6.91146 33.5206 7.22869C33.0992 7.54593 32.7796 7.98864 32.5618 8.55682C32.344 9.125 32.2351 9.78788 32.2351 10.5455ZM47.093 16.2202C46.0703 16.2202 45.1778 15.9858 44.4155 15.517C43.6532 15.0483 43.0613 14.3925 42.6399 13.5497C42.2185 12.7069 42.0078 11.7221 42.0078 10.5952C42.0078 9.46354 42.2185 8.47396 42.6399 7.62642C43.0613 6.77888 43.6532 6.12074 44.4155 5.65199C45.1778 5.18324 46.0703 4.94886 47.093 4.94886C48.1158 4.94886 49.0083 5.18324 49.7706 5.65199C50.5329 6.12074 51.1248 6.77888 51.5462 7.62642C51.9676 8.47396 52.1783 9.46354 52.1783 10.5952C52.1783 11.7221 51.9676 12.7069 51.5462 13.5497C51.1248 14.3925 50.5329 15.0483 49.7706 15.517C49.0083 15.9858 48.1158 16.2202 47.093 16.2202ZM47.1001 14.4375C47.763 14.4375 48.3123 14.2623 48.7479 13.9119C49.1835 13.5616 49.5054 13.0952 49.7138 12.5128C49.9268 11.9304 50.0334 11.2888 50.0334 10.5881C50.0334 9.89205 49.9268 9.25284 49.7138 8.67045C49.5054 8.08333 49.1835 7.61222 48.7479 7.2571C48.3123 6.90199 47.763 6.72443 47.1001 6.72443C46.4325 6.72443 45.8786 6.90199 45.4382 7.2571C45.0026 7.61222 44.6783 8.08333 44.4652 8.67045C44.2569 9.25284 44.1527 9.89205 44.1527 10.5881C44.1527 11.2888 44.2569 11.9304 44.4652 12.5128C44.6783 13.0952 45.0026 13.5616 45.4382 13.9119C45.8786 14.2623 46.4325 14.4375 47.1001 14.4375ZM56.5817 16L53.3714 5.09091H55.5661L57.7038 13.1023H57.8104L59.9553 5.09091H62.1499L64.2805 13.0668H64.3871L66.5107 5.09091H68.7053L65.5021 16H63.3359L61.12 8.12358H60.9567L58.7408 16H56.5817ZM75.0902 16.2202C74.0154 16.2202 73.0897 15.9905 72.3132 15.5312C71.5414 15.0672 70.9448 14.4162 70.5234 13.5781C70.1068 12.7353 69.8984 11.7481 69.8984 10.6165C69.8984 9.49905 70.1068 8.5142 70.5234 7.66193C70.9448 6.80966 71.532 6.14441 72.2848 5.66619C73.0424 5.18797 73.9278 4.94886 74.9411 4.94886C75.5566 4.94886 76.1532 5.05066 76.7308 5.25426C77.3085 5.45786 77.8269 5.77746 78.2862 6.21307C78.7455 6.64867 79.1077 7.21449 79.3729 7.91051C79.638 8.6018 79.7706 9.44223 79.7706 10.4318V11.1847H71.0987V9.59375H77.6896C77.6896 9.03504 77.576 8.54025 77.3487 8.10938C77.1214 7.67377 76.8018 7.33049 76.3899 7.07955C75.9827 6.8286 75.5045 6.70312 74.9553 6.70312C74.3587 6.70312 73.8378 6.84991 73.3928 7.14347C72.9524 7.43229 72.6115 7.81108 72.37 8.27983C72.1333 8.74384 72.0149 9.24811 72.0149 9.79261V11.0355C72.0149 11.7647 72.1428 12.3849 72.3984 12.8963C72.6589 13.4077 73.0211 13.7983 73.4851 14.0682C73.9491 14.3333 74.4912 14.4659 75.1115 14.4659C75.514 14.4659 75.8809 14.4091 76.2124 14.2955C76.5438 14.1771 76.8303 14.0019 77.0717 13.7699C77.3132 13.5379 77.4979 13.2514 77.6257 12.9105L79.6357 13.2727C79.4747 13.8646 79.1858 14.383 78.7692 14.8281C78.3572 15.2685 77.8388 15.6117 77.2138 15.858C76.5935 16.0994 75.8857 16.2202 75.0902 16.2202ZM82.1268 16V5.09091H84.1793V6.82386H84.293C84.4918 6.23674 84.8422 5.77509 85.3441 5.43892C85.8507 5.09801 86.4237 4.92756 87.0629 4.92756C87.1954 4.92756 87.3517 4.93229 87.5316 4.94176C87.7163 4.95123 87.8607 4.96307 87.9648 4.97727V7.00852C87.8796 6.98485 87.7281 6.95881 87.5103 6.9304C87.2925 6.89725 87.0747 6.88068 86.8569 6.88068C86.355 6.88068 85.9076 6.98722 85.5146 7.20028C85.1263 7.40862 84.8185 7.69981 84.5913 8.07386C84.364 8.44318 84.2504 8.86458 84.2504 9.33807V16H82.1268ZM89.8026 16V5.09091H91.9261V16H89.8026ZM90.875 3.40767C90.5057 3.40767 90.1884 3.28456 89.9233 3.03835C89.6629 2.7874 89.5327 2.48911 89.5327 2.14347C89.5327 1.79309 89.6629 1.49479 89.9233 1.24858C90.1884 0.997632 90.5057 0.872159 90.875 0.872159C91.2443 0.872159 91.5592 0.997632 91.8196 1.24858C92.0848 1.49479 92.2173 1.79309 92.2173 2.14347C92.2173 2.48911 92.0848 2.7874 91.8196 3.03835C91.5592 3.28456 91.2443 3.40767 90.875 3.40767ZM96.9066 9.52273V16H94.783V5.09091H96.8214V6.86648H96.9563C97.2073 6.28883 97.6003 5.82481 98.1353 5.47443C98.6751 5.12405 99.3545 4.94886 100.174 4.94886C100.917 4.94886 101.568 5.10511 102.127 5.41761C102.685 5.72538 103.119 6.18466 103.426 6.79545C103.734 7.40625 103.888 8.16146 103.888 9.06108V16H101.765V9.31676C101.765 8.52604 101.559 7.90814 101.147 7.46307C100.735 7.01326 100.169 6.78835 99.4492 6.78835C98.9568 6.78835 98.5188 6.89489 98.1353 7.10795C97.7565 7.32102 97.4558 7.63352 97.2333 8.04545C97.0155 8.45265 96.9066 8.94508 96.9066 9.52273ZM111.31 20.3182C110.444 20.3182 109.698 20.2045 109.073 19.9773C108.453 19.75 107.946 19.4493 107.553 19.0753C107.16 18.7012 106.866 18.2917 106.672 17.8466L108.498 17.0938C108.625 17.3021 108.796 17.5223 109.009 17.7543C109.227 17.991 109.52 18.1922 109.89 18.358C110.264 18.5237 110.744 18.6065 111.331 18.6065C112.136 18.6065 112.801 18.41 113.327 18.017C113.853 17.6288 114.115 17.0085 114.115 16.1562V14.0114H113.98C113.853 14.2434 113.668 14.5014 113.426 14.7855C113.19 15.0696 112.863 15.3158 112.446 15.5241C112.03 15.7325 111.488 15.8366 110.82 15.8366C109.958 15.8366 109.182 15.6354 108.49 15.233C107.804 14.8258 107.259 14.2268 106.857 13.4361C106.459 12.6406 106.26 11.6629 106.26 10.5028C106.26 9.3428 106.457 8.34848 106.85 7.51989C107.248 6.69129 107.792 6.05682 108.483 5.61648C109.175 5.1714 109.958 4.94886 110.834 4.94886C111.511 4.94886 112.058 5.0625 112.475 5.28977C112.891 5.51231 113.216 5.77273 113.448 6.07102C113.685 6.36932 113.867 6.6321 113.995 6.85938H114.151V5.09091H116.232V16.2415C116.232 17.179 116.014 17.9484 115.578 18.5497C115.143 19.151 114.553 19.5961 113.81 19.8849C113.071 20.1738 112.238 20.3182 111.31 20.3182ZM111.289 14.0753C111.9 14.0753 112.416 13.9332 112.837 13.6491C113.263 13.3603 113.585 12.9484 113.803 12.4134C114.025 11.8736 114.137 11.2273 114.137 10.4744C114.137 9.74053 114.028 9.09422 113.81 8.53551C113.592 7.9768 113.273 7.54119 112.851 7.22869C112.43 6.91146 111.909 6.75284 111.289 6.75284C110.65 6.75284 110.117 6.91856 109.691 7.25C109.265 7.5767 108.943 8.02178 108.725 8.58523C108.512 9.14867 108.405 9.77841 108.405 10.4744C108.405 11.1894 108.514 11.8168 108.732 12.3565C108.95 12.8963 109.272 13.3177 109.698 13.6207C110.129 13.9238 110.659 14.0753 111.289 14.0753ZM123.826 3.34375V1.45455H135.083V3.34375H130.545V16H128.357V3.34375H123.826ZM139.091 16.2415C138.399 16.2415 137.774 16.1136 137.216 15.858C136.657 15.5975 136.214 15.2211 135.887 14.7287C135.565 14.2363 135.404 13.6326 135.404 12.9176C135.404 12.3021 135.523 11.7955 135.76 11.3977C135.996 11 136.316 10.6851 136.718 10.4531C137.121 10.2211 137.571 10.0459 138.068 9.92756C138.565 9.80919 139.072 9.71922 139.588 9.65767C140.241 9.58191 140.771 9.52036 141.179 9.47301C141.586 9.42093 141.882 9.33807 142.066 9.22443C142.251 9.1108 142.343 8.92614 142.343 8.67045V8.62074C142.343 8.00047 142.168 7.51989 141.818 7.17898C141.472 6.83807 140.956 6.66761 140.27 6.66761C139.555 6.66761 138.991 6.82623 138.579 7.14347C138.172 7.45597 137.89 7.80398 137.734 8.1875L135.738 7.73295C135.975 7.07008 136.321 6.53504 136.775 6.12784C137.234 5.71591 137.762 5.41761 138.359 5.23295C138.956 5.04356 139.583 4.94886 140.241 4.94886C140.677 4.94886 141.138 5.00095 141.626 5.10511C142.118 5.20455 142.578 5.3892 143.004 5.65909C143.435 5.92898 143.788 6.31487 144.062 6.81676C144.337 7.31392 144.474 7.96023 144.474 8.75568V16H142.4V14.5085H142.315C142.178 14.7831 141.972 15.053 141.697 15.3182C141.422 15.5833 141.07 15.8035 140.639 15.9787C140.208 16.1539 139.692 16.2415 139.091 16.2415ZM139.552 14.5369C140.139 14.5369 140.641 14.4209 141.058 14.1889C141.479 13.9569 141.799 13.6539 142.017 13.2798C142.239 12.901 142.35 12.4962 142.35 12.0653V10.6591C142.275 10.7348 142.128 10.8059 141.91 10.8722C141.697 10.9337 141.453 10.9882 141.179 11.0355C140.904 11.0781 140.636 11.1184 140.376 11.1562C140.116 11.1894 139.898 11.2178 139.723 11.2415C139.311 11.2936 138.934 11.3812 138.593 11.5043C138.257 11.6274 137.987 11.8049 137.784 12.0369C137.585 12.2642 137.485 12.5672 137.485 12.946C137.485 13.4716 137.68 13.8693 138.068 14.1392C138.456 14.4044 138.951 14.5369 139.552 14.5369ZM147.303 16V5.09091H149.341V6.86648H149.476C149.703 6.26515 150.075 5.7964 150.591 5.46023C151.107 5.11932 151.725 4.94886 152.445 4.94886C153.174 4.94886 153.785 5.11932 154.277 5.46023C154.774 5.80114 155.141 6.26989 155.378 6.86648H155.491C155.752 6.28409 156.166 5.82008 156.734 5.47443C157.303 5.12405 157.98 4.94886 158.766 4.94886C159.755 4.94886 160.562 5.259 161.188 5.87926C161.817 6.49953 162.132 7.43466 162.132 8.68466V16H160.009V8.88352C160.009 8.14489 159.807 7.60985 159.405 7.27841C159.002 6.94697 158.522 6.78125 157.963 6.78125C157.272 6.78125 156.734 6.99432 156.351 7.42045C155.967 7.84186 155.776 8.384 155.776 9.04688V16H153.659V8.74858C153.659 8.15672 153.474 7.68087 153.105 7.32102C152.736 6.96117 152.255 6.78125 151.663 6.78125C151.261 6.78125 150.889 6.88778 150.548 7.10085C150.212 7.30919 149.94 7.60038 149.732 7.97443C149.528 8.34848 149.426 8.78172 149.426 9.27415V16H147.303ZM164.978 16V5.09091H167.102V16H164.978ZM166.051 3.40767C165.681 3.40767 165.364 3.28456 165.099 3.03835C164.839 2.7874 164.708 2.48911 164.708 2.14347C164.708 1.79309 164.839 1.49479 165.099 1.24858C165.364 0.997632 165.681 0.872159 166.051 0.872159C166.42 0.872159 166.735 0.997632 166.995 1.24858C167.261 1.49479 167.393 1.79309 167.393 2.14347C167.393 2.48911 167.261 2.7874 166.995 3.03835C166.735 3.28456 166.42 3.40767 166.051 3.40767ZM172.082 1.45455V16H169.959V1.45455H172.082ZM192.143 1.45455V16H190.126L182.732 5.33239H182.597V16H180.403V1.45455H182.434L189.835 12.1364H189.969V1.45455H192.143ZM198.348 16.2415C197.657 16.2415 197.032 16.1136 196.473 15.858C195.915 15.5975 195.472 15.2211 195.145 14.7287C194.823 14.2363 194.662 13.6326 194.662 12.9176C194.662 12.3021 194.781 11.7955 195.017 11.3977C195.254 11 195.574 10.6851 195.976 10.4531C196.379 10.2211 196.828 10.0459 197.326 9.92756C197.823 9.80919 198.329 9.71922 198.846 9.65767C199.499 9.58191 200.029 9.52036 200.436 9.47301C200.844 9.42093 201.14 9.33807 201.324 9.22443C201.509 9.1108 201.601 8.92614 201.601 8.67045V8.62074C201.601 8.00047 201.426 7.51989 201.076 7.17898C200.73 6.83807 200.214 6.66761 199.527 6.66761C198.812 6.66761 198.249 6.82623 197.837 7.14347C197.43 7.45597 197.148 7.80398 196.992 8.1875L194.996 7.73295C195.233 7.07008 195.578 6.53504 196.033 6.12784C196.492 5.71591 197.02 5.41761 197.617 5.23295C198.213 5.04356 198.841 4.94886 199.499 4.94886C199.935 4.94886 200.396 5.00095 200.884 5.10511C201.376 5.20455 201.836 5.3892 202.262 5.65909C202.693 5.92898 203.045 6.31487 203.32 6.81676C203.595 7.31392 203.732 7.96023 203.732 8.75568V16H201.658V14.5085H201.573C201.435 14.7831 201.23 15.053 200.955 15.3182C200.68 15.5833 200.328 15.8035 199.897 15.9787C199.466 16.1539 198.95 16.2415 198.348 16.2415ZM198.81 14.5369C199.397 14.5369 199.899 14.4209 200.316 14.1889C200.737 13.9569 201.057 13.6539 201.275 13.2798C201.497 12.901 201.608 12.4962 201.608 12.0653V10.6591C201.533 10.7348 201.386 10.8059 201.168 10.8722C200.955 10.9337 200.711 10.9882 200.436 11.0355C200.162 11.0781 199.894 11.1184 199.634 11.1562C199.373 11.1894 199.156 11.2178 198.98 11.2415C198.569 11.2936 198.192 11.3812 197.851 11.5043C197.515 11.6274 197.245 11.8049 197.042 12.0369C196.843 12.2642 196.743 12.5672 196.743 12.946C196.743 13.4716 196.937 13.8693 197.326 14.1392C197.714 14.4044 198.209 14.5369 198.81 14.5369ZM210.644 16.2131C209.763 16.2131 208.978 15.9882 208.286 15.5384C207.6 15.0838 207.06 14.4375 206.667 13.5994C206.279 12.7566 206.085 11.7457 206.085 10.5668C206.085 9.38778 206.281 8.37926 206.674 7.54119C207.072 6.70312 207.616 6.06155 208.308 5.61648C208.999 5.1714 209.782 4.94886 210.658 4.94886C211.335 4.94886 211.88 5.0625 212.292 5.28977C212.709 5.51231 213.031 5.77273 213.258 6.07102C213.49 6.36932 213.67 6.6321 213.798 6.85938H213.925V1.45455H216.049V16H213.975V14.3026H213.798C213.67 14.5346 213.485 14.7997 213.244 15.098C213.007 15.3963 212.68 15.6567 212.263 15.8793C211.847 16.1018 211.307 16.2131 210.644 16.2131ZM211.113 14.402C211.724 14.402 212.24 14.241 212.661 13.919C213.087 13.5923 213.409 13.1402 213.627 12.5625C213.85 11.9848 213.961 11.3125 213.961 10.5455C213.961 9.78788 213.852 9.125 213.634 8.55682C213.416 7.98864 213.097 7.54593 212.675 7.22869C212.254 6.91146 211.733 6.75284 211.113 6.75284C210.474 6.75284 209.941 6.91856 209.515 7.25C209.089 7.58144 208.767 8.03362 208.549 8.60653C208.336 9.17945 208.229 9.82576 208.229 10.5455C208.229 11.2746 208.338 11.9304 208.556 12.5128C208.774 13.0952 209.096 13.5568 209.522 13.8977C209.953 14.2339 210.483 14.402 211.113 14.402ZM225.99 11.4759V5.09091H228.121V16H226.033V14.1108H225.919C225.668 14.6932 225.266 15.1785 224.712 15.5668C224.163 15.9503 223.479 16.142 222.659 16.142C221.959 16.142 221.338 15.9882 220.799 15.6804C220.264 15.3679 219.842 14.9062 219.534 14.2955C219.231 13.6847 219.08 12.9295 219.08 12.0298V5.09091H221.203V11.7741C221.203 12.5175 221.409 13.1094 221.821 13.5497C222.233 13.9901 222.768 14.2102 223.426 14.2102C223.824 14.2102 224.22 14.1108 224.613 13.9119C225.01 13.7131 225.339 13.4124 225.6 13.0099C225.865 12.6075 225.995 12.0961 225.99 11.4759Z" fill="black"/>
</svg>
